<svg width="40" height="40" viewBox="0 0 40 40" fill="none" xmlns="http://www.w3.org/2000/svg">
<g clip-path="url(#clip0)">
<path d="M37.5585 27.9199H6.99914C3.95507 27.9199 1.4873 30.3876 1.4873 33.4318C1.4873 36.4758 3.95499 38.9436 6.99914 38.9436H37.5585V27.9199Z" fill="#F4E9D7"/>
<path d="M8.21714 33.4317C8.21714 31.2177 8.98559 29.2378 10.1935 27.9199H6.99914C3.95507 27.9199 1.4873 30.3877 1.4873 33.4317C1.4873 36.4757 3.95507 38.9435 6.99914 38.9435H10.1935C8.98559 37.6255 8.21714 35.6457 8.21714 33.4317Z" fill="#F2E5D0"/>
<path d="M8.93102 39.9685H6.65621C2.98012 39.9685 0 36.9883 0 33.3122C0 29.6361 2.98012 26.656 6.65621 26.656H39.3386C39.67 26.656 39.9387 26.9247 39.9387 27.2561V29.12C39.9387 29.4514 39.67 29.7201 39.3386 29.7201H6.71999C4.70999 29.7201 3.03028 31.365 3.06471 33.3746C3.09817 35.3267 4.69645 36.9042 6.65629 36.9042H8.93102H39.3386C39.67 36.9042 39.9387 37.1729 39.9387 37.5043V39.3682C39.9387 39.6996 39.67 39.9683 39.3386 39.9683H8.93102V39.9685Z" fill="#91D4DD"/>
<path d="M16.0761 39.775L13.9468 38.8937L11.8175 39.775C11.5949 39.8671 11.3501 39.7036 11.3501 39.4626V33.3121H16.5434V39.4626C16.5435 39.7036 16.2987 39.8672 16.0761 39.775Z" fill="#5D9BF9"/>
<path d="M17.5964 33.9169H10.011C9.67702 33.9169 9.40625 33.6462 9.40625 33.3122C9.40625 32.9781 9.67702 32.7074 10.011 32.7074H17.5964C17.9304 32.7074 18.2012 32.9781 18.2012 33.3122C18.2012 33.6462 17.9304 33.9169 17.5964 33.9169Z" fill="#F2E5D0"/>
<path d="M2.39551 14.2889H32.1563C35.2393 14.2889 37.7385 16.7882 37.7385 19.8712C37.7385 22.9542 35.2393 25.4534 32.1563 25.4534H2.39551V14.2889Z" fill="#F4E9D7"/>
<path d="M2.39551 14.2889H9.18759V25.4534H2.39551V14.2889Z" fill="#F2E5D0"/>
<path d="M31.0228 26.6558H33.2976C36.9737 26.6558 39.9539 23.6757 39.9539 19.9996C39.9539 16.3235 36.9737 13.3434 33.2976 13.3434H0.615225C0.283814 13.3434 0.0151367 13.6121 0.0151367 13.9435V15.8074C0.0151367 16.1388 0.283814 16.4074 0.615225 16.4074H33.2339C35.2439 16.4074 36.9236 18.0523 36.8891 20.062C36.8557 22.014 35.2574 23.5916 33.2976 23.5916H31.0228H0.615225C0.283814 23.5916 0.0151367 23.8603 0.0151367 24.1917V26.0556C0.0151367 26.387 0.283814 26.6556 0.615225 26.6556H31.0228V26.6558Z" fill="#F47C7C"/>
<path d="M0.615225 16.4074H9.07452C8.74311 16.4074 8.47443 16.1388 8.47443 15.8073V13.9435C8.47443 13.6121 8.74311 13.3434 9.07452 13.3434H0.615225C0.283814 13.3434 0.0151367 13.6121 0.0151367 13.9435V15.8073C0.0151367 16.1388 0.283814 16.4074 0.615225 16.4074V16.4074Z" fill="#EE6161"/>
<path d="M8.47443 26.0556V24.1918C8.47443 23.8604 8.74311 23.5917 9.07452 23.5917H0.615225C0.283814 23.5917 0.0151367 23.8604 0.0151367 24.1918V26.0556C0.0151367 26.3871 0.283814 26.6557 0.615225 26.6557H9.07452C8.74311 26.6557 8.47443 26.3871 8.47443 26.0556Z" fill="#EE6161"/>
<path d="M37.5582 0.997437H6.40035C3.34717 0.997437 0.87207 3.47254 0.87207 6.52572C0.87207 9.5789 3.34717 12.054 6.40035 12.054H37.5582V0.997437Z" fill="#F4E9D7"/>
<path d="M7.13229 6.83681C7.13229 4.43678 8.30344 2.31058 10.1051 0.997437H6.40036C3.34718 0.997437 0.87207 3.47254 0.87207 6.52572C0.87207 9.5789 3.34718 12.054 6.40036 12.054H9.36097C7.98759 10.7395 7.13229 8.8881 7.13229 6.83681V6.83681Z" fill="#F2E5D0"/>
<path d="M23.8152 26.4884L26.0073 25.5811L28.1993 26.4884C28.392 26.5681 28.604 26.4265 28.604 26.2179V19.9996H23.4106V26.2179C23.4106 26.4264 23.6225 26.5681 23.8152 26.4884Z" fill="#FDB441"/>
<path d="M29.943 20.6044H22.3577C22.0236 20.6044 21.7529 20.3337 21.7529 19.9997C21.7529 19.6656 22.0236 19.3949 22.3577 19.3949H29.943C30.2771 19.3949 30.5478 19.6656 30.5478 19.9997C30.5478 20.3337 30.2771 20.6044 29.943 20.6044Z" fill="#F2E5D0"/>
<path d="M40.0002 10.8794V12.7437C40.0002 13.0751 39.7309 13.3436 39.3995 13.3436H8.99189H6.71717C4.87949 13.3436 3.21517 12.5985 2.01048 11.3938C0.806595 10.1891 0.0615234 8.52563 0.0615234 6.68714C0.0615234 3.01097 3.041 0.0314941 6.71717 0.0314941H39.3995C39.7309 0.0314941 40.0002 0.30001 40.0002 0.631422V2.49491C40.0002 2.82632 39.7309 3.09564 39.3995 3.09564H6.78087C4.77144 3.09564 3.0918 4.7398 3.12567 6.75004C3.15954 8.70141 4.75773 10.2794 6.71717 10.2794H8.99189H39.3995C39.7309 10.2794 40.0002 10.548 40.0002 10.8794V10.8794Z" fill="#FFA71C"/>
<path d="M8.00459 10.2793H6.71717C4.75773 10.2793 3.15954 8.70129 3.12567 6.74991C3.0918 4.73967 4.77144 3.09552 6.78087 3.09552H8.17602C9.03157 1.68569 10.3562 0.592433 11.9333 0.0313721H6.71717C3.041 0.0313721 0.0615234 3.01085 0.0615234 6.68702C0.0615234 8.52551 0.806595 10.189 2.01048 11.3937C3.21517 12.5984 4.87949 13.3435 6.71717 13.3435H8.99189H11.2185C9.85284 12.6842 8.72636 11.6077 8.00459 10.2793V10.2793Z" fill="#FEA613"/>
<path d="M16.2783 13.2086L14.0077 12.2689L11.7372 13.2086C11.5819 13.2729 11.4111 13.1587 11.4111 12.9906V6.68738H16.6044V12.9906C16.6044 13.1588 16.4336 13.2729 16.2783 13.2086V13.2086Z" fill="#91D4DD"/>
<path d="M17.6574 7.29206H10.0721C9.73806 7.29206 9.46729 7.02136 9.46729 6.68729C9.46729 6.35321 9.73806 6.08252 10.0721 6.08252H17.6574C17.9914 6.08252 18.2622 6.35321 18.2622 6.68729C18.2622 7.02136 17.9915 7.29206 17.6574 7.29206Z" fill="#F2E5D0"/>
<path d="M8.90271 36.9043H6.65621C4.69637 36.9043 3.09809 35.3267 3.06463 33.3747C3.0302 31.365 4.70991 29.7202 6.71991 29.7202H9.00851C9.66335 28.3081 10.6805 27.2141 11.892 26.656H6.65621C2.98012 26.656 0 29.6361 0 33.3122C0 36.9883 2.98012 39.9685 6.65621 39.9685H8.93102H11.4383C10.3624 39.3268 9.47256 38.2471 8.90271 36.9043V36.9043Z" fill="#91D4DD"/>
</g>
<defs>
<clipPath id="clip0">
<rect width="40" height="40" fill="white"/>
</clipPath>
</defs>
</svg>
