<svg width="38" height="40" viewBox="0 0 38 40" fill="none" xmlns="http://www.w3.org/2000/svg">
<path d="M18.8647 37.8818L6.94938 39.9834C6.36016 40.0868 5.79829 39.6936 5.69493 39.1044L0.0164941 6.90895C-0.0868653 6.32059 0.30626 5.7588 0.895478 5.6545L7.0943 4.56177L18.8647 37.8818Z" fill="#1693A5"/>
<path d="M8.73831 34.1584L8.63315 34.7538C8.50331 35.488 8.99354 36.1876 9.72768 36.3174L18.6005 37.882L30.2534 39.9367C30.9875 40.0666 31.688 39.5763 31.8169 38.8422L37.4026 7.17238C37.5316 6.43824 37.0413 5.73777 36.3073 5.60879L30.5034 4.58496L8.73831 34.1584Z" fill="#ACE2EA"/>
<path d="M11.1215 34.8578H11.0366C11.0646 34.8578 11.1303 34.882 11.1215 34.8578Z" fill="#75D3E0"/>
<path d="M32.5101 30.653H30.5039V4.58484V1.08039C30.5039 0.484062 30.0207 0 29.4235 0H7.84119C7.28291 0 6.83057 0.452265 6.83057 1.01148V4.56187V28.2078V30.5753C6.83057 32.062 7.58853 33.3889 8.73869 34.1583C9.38978 34.5939 10.1663 34.8509 11.002 34.8571L11.1112 34.8336C11.1145 34.8414 11.1179 34.8492 11.1213 34.8571C11.1214 34.8575 11.1213 34.8576 11.1213 34.8579H28.3104C28.4031 34.8579 28.495 34.8553 28.586 34.8491C30.7786 34.7069 32.5127 32.8853 32.5162 30.6582C32.5162 30.6557 32.5136 30.653 32.5101 30.653Z" fill="#75D3E0"/>
<path d="M11.002 34.8572L12.8032 34.4694C12.2899 34.7079 11.721 34.8448 11.1213 34.8572C11.093 34.858 11.0647 34.858 11.0364 34.858C11.0249 34.8581 11.0134 34.8581 11.002 34.8572Z" fill="#75D3E0"/>
<path d="M11.0361 34.858H10.999L11.0017 34.8572C11.0132 34.858 11.0246 34.858 11.0361 34.858Z" fill="white"/>
<path d="M32.5102 30.6531H30.504H27.8459H15.2469C15.2433 30.6531 15.2407 30.6557 15.2407 30.6584C15.2389 32.3475 14.2415 33.8024 12.8034 34.4694C12.2901 34.7079 11.7212 34.8449 11.1215 34.8572C11.0932 34.8581 11.0649 34.8581 11.0366 34.8581H28.3105C28.4032 34.8581 28.4951 34.8554 28.5861 34.8492C30.7787 34.7071 32.5128 32.8854 32.5164 30.6584C32.5164 30.6557 32.5137 30.6531 32.5102 30.6531Z" fill="#D1F6FC"/>
<path d="M12.3959 4.39331H13.4499C13.4993 4.39331 13.5439 4.42292 13.5632 4.46839L15.3988 8.81088C15.4331 8.8919 15.3736 8.98166 15.2855 8.98166H14.2006C14.1502 8.98166 14.1049 8.95088 14.0864 8.90409L13.8225 8.23917C13.804 8.19237 13.7586 8.16159 13.7083 8.16159H12.1113C12.0609 8.16159 12.0156 8.19237 11.9971 8.23917L11.7332 8.90409C11.7147 8.95088 11.6693 8.98166 11.619 8.98166H10.5664C10.4785 8.98166 10.419 8.89205 10.4531 8.81096L12.2826 4.46847C12.3019 4.42292 12.3465 4.39331 12.3959 4.39331ZM13.3546 7.01096L13.0268 6.17878C12.986 6.07526 12.8395 6.07487 12.7983 6.17823L12.4663 7.01042C12.434 7.0912 12.4934 7.17885 12.5804 7.17885H13.2403C13.3269 7.17885 13.3863 7.09159 13.3546 7.01096Z" fill="#1693A5"/>
<path d="M26.9087 13.6024H10.4433C10.0774 13.6024 9.78076 13.3057 9.78076 12.9398C9.78076 12.5739 10.0774 12.2772 10.4433 12.2772H26.9086C27.2746 12.2772 27.5712 12.5739 27.5712 12.9398C27.5712 13.3057 27.2746 13.6024 26.9087 13.6024Z" fill="#1693A5"/>
<path d="M26.9087 16.1449H10.4433C10.0774 16.1449 9.78076 15.8482 9.78076 15.4823C9.78076 15.1163 10.0774 14.8197 10.4433 14.8197H26.9086C27.2746 14.8197 27.5712 15.1163 27.5712 15.4823C27.5712 15.8482 27.2746 16.1449 26.9087 16.1449Z" fill="#1693A5"/>
<path d="M26.9087 18.6872H10.4433C10.0774 18.6872 9.78076 18.3906 9.78076 18.0246C9.78076 17.6587 10.0774 17.3621 10.4433 17.3621H26.9086C27.2746 17.3621 27.5712 17.6587 27.5712 18.0246C27.5712 18.3906 27.2746 18.6872 26.9087 18.6872Z" fill="#1693A5"/>
<path d="M16.9536 21.2297H10.4433C10.0774 21.2297 9.78076 20.9331 9.78076 20.5671C9.78076 20.2012 10.0774 19.9045 10.4433 19.9045H16.9536C17.3196 19.9045 17.6162 20.2012 17.6162 20.5671C17.6162 20.9331 17.3196 21.2297 16.9536 21.2297Z" fill="#1693A5"/>
<path d="M16.2902 6.11175H15.9869C15.9279 6.11175 15.8799 6.06378 15.8799 6.00471V4.50034C15.8799 4.44128 15.9279 4.39331 15.9869 4.39331H16.2902C16.3493 4.39331 16.3972 4.44128 16.3972 4.50034V6.00471C16.3973 6.06378 16.3493 6.11175 16.2902 6.11175Z" fill="#1693A5"/>
<path d="M16.9977 5.10093V5.40421C16.9977 5.46327 16.9498 5.51124 16.8907 5.51124H15.3863C15.3273 5.51124 15.2793 5.46327 15.2793 5.40421V5.10093C15.2793 5.04186 15.3273 4.9939 15.3863 4.9939H16.8907C16.9498 4.99382 16.9977 5.04179 16.9977 5.10093Z" fill="#1693A5"/>
<path d="M28.4731 0.272265C28.554 0.1925 28.6002 0.0974999 28.6181 0H21.479C21.4967 0.0974999 21.543 0.1925 21.6238 0.272265L22.7425 1.37578C22.861 1.49265 22.9156 1.6582 22.8895 1.82125L22.6431 3.36156C22.5763 3.77828 23.0174 4.09382 23.3992 3.90265L24.8106 3.19593C24.9601 3.12109 25.1369 3.12109 25.2863 3.19593L26.6977 3.90265C27.0795 4.09382 27.5206 3.77828 27.4538 3.36156L27.2074 1.82125C27.1813 1.6582 27.2359 1.4925 27.3545 1.37578L28.4731 0.272265Z" fill="white"/>
</svg>
