<svg width="46" height="46" viewBox="0 0 46 46" fill="none" xmlns="http://www.w3.org/2000/svg">
<g clip-path="url(#clip0)">
<path d="M39.8714 15.9693V26.9937C39.8714 27.4427 39.5936 27.8441 39.1745 28.005C28.3914 32.1316 17.6084 32.1316 6.82539 28.005C6.40627 27.8441 6.12842 27.4427 6.12842 26.9937V15.9693L10.2046 12.1504H37.3062L39.8714 15.9693Z" fill="#395375"/>
<path d="M37.3062 12.1504H10.2046L6.12842 15.9693V15.9707V18.418V26.9937C6.12842 27.4427 6.40627 27.8441 6.82539 28.005C8.46549 28.6326 10.1049 29.1647 11.7449 29.6014L11.7456 23.0931C11.7456 21.6346 13.1582 20.5931 14.5515 21.0242L22.1326 23.37C22.4137 23.4568 22.7055 23.5008 22.9999 23.5008C23.2943 23.5008 23.5861 23.4568 23.868 23.3697L39.8714 18.418V15.9693L37.3062 12.1504Z" fill="#283F5C"/>
<path d="M45.5783 13.0596C46.1405 13.2336 46.1405 14.0298 45.5783 14.2038L23.1768 21.1352C23.0617 21.1708 22.9382 21.1708 22.8232 21.1352L0.421694 14.2038C-0.140565 14.0298 -0.140565 13.2336 0.421694 13.0596L22.8232 6.12823C22.9382 6.09267 23.0617 6.09267 23.1768 6.12823L45.5783 13.0596Z" fill="#536F93"/>
<path d="M15.3245 12.5945L29.5552 8.10184L23.1768 6.12823C23.0617 6.09267 22.9383 6.09267 22.8232 6.12823L0.421694 13.0596C-0.140565 13.2336 -0.140565 14.0298 0.421694 14.2038L22.8232 21.1352C22.9383 21.1708 23.0617 21.1708 23.1768 21.1352L28.7255 19.4183L15.3422 15.3801C13.9691 14.9659 13.9568 13.0262 15.3245 12.5945Z" fill="#395375"/>
<path d="M10.2046 38.7935C9.81699 38.7935 9.50293 38.4793 9.50293 38.0918V17.2308C9.50293 16.9232 9.70332 16.6514 9.99717 16.5605L21.371 13.0409C21.38 13.0381 21.3889 13.0355 21.3981 13.0331L23.468 12.4827C23.8426 12.3831 24.2267 12.606 24.3263 12.9805C24.426 13.355 24.2031 13.7394 23.8285 13.8389L21.7723 14.3856L10.9062 17.7481V38.0919C10.9062 38.4794 10.5922 38.7935 10.2046 38.7935Z" fill="#283F5C"/>
<path d="M10.4519 35.0708H9.95767C8.93503 35.0708 8.10596 35.8999 8.10596 36.9225V39.2262C8.10596 39.5975 8.40701 39.8985 8.77833 39.8985H11.6314C12.0027 39.8985 12.3037 39.5975 12.3037 39.2262V36.9225C12.3036 35.8998 11.4746 35.0708 10.4519 35.0708Z" fill="#5E7BA0"/>
<path d="M23 14.475C23.9413 14.475 24.7045 13.7119 24.7045 12.7705C24.7045 11.8291 23.9413 11.0659 23 11.0659C22.0586 11.0659 21.2954 11.8291 21.2954 12.7705C21.2954 13.7119 22.0586 14.475 23 14.475Z" fill="#283F5C"/>
</g>
<defs>
<clipPath id="clip0">
<rect width="46" height="46" fill="white"/>
</clipPath>
</defs>
</svg>
